<svg width="50" height="50" viewBox="0 0 50 50" fill="none" xmlns="http://www.w3.org/2000/svg">
<path d="M30.606 49H18.9766C18.5669 49 18.2366 48.6681 18.2366 48.2602V42.9886C16.1465 42.2272 14.2211 41.1123 12.5008 39.6657L7.92709 42.307C7.75669 42.4031 7.55355 42.4303 7.36501 42.3814C7.17648 42.3306 7.01324 42.2072 6.91535 42.0368L1.09979 31.9649C1.0019 31.7945 0.974681 31.5932 1.02544 31.4029C1.0762 31.2125 1.20025 31.0511 1.37066 30.9532L5.92573 28.3229C5.73357 27.2298 5.63805 26.1149 5.63805 25C5.63805 23.8851 5.73357 22.7684 5.92573 21.6771L1.37066 19.0466C1.20025 18.9487 1.0762 18.7857 1.02544 18.5971C0.974681 18.4086 1.00009 18.2055 1.09979 18.0351L6.91535 7.96317C7.01324 7.79277 7.17648 7.66938 7.36501 7.61862C7.55355 7.56786 7.75669 7.59327 7.92709 7.69298L12.5008 10.3343C14.2211 8.8895 16.1465 7.77455 18.2366 7.01317V1.73956C18.2366 1.32986 18.5688 1 18.9766 1H30.606C31.0157 1 31.3451 1.33167 31.3451 1.73956V7.01317C33.4353 7.77455 35.3606 8.8895 37.081 10.3343L41.6564 7.69298C41.8268 7.59508 42.03 7.56786 42.2185 7.61862C42.407 7.66938 42.5703 7.79277 42.6682 7.96317L48.4837 18.0351C48.6886 18.3886 48.5672 18.8417 48.2137 19.0466L43.6578 21.6771C43.8481 22.772 43.9463 23.8869 43.9463 25C43.9463 26.1131 43.8499 27.2298 43.6578 28.3229L48.2137 30.9532C48.5672 31.158 48.6886 31.6096 48.4837 31.9649L42.6682 42.0368C42.5703 42.2072 42.407 42.3306 42.2185 42.3814C42.03 42.4303 41.8268 42.4049 41.6564 42.307L37.081 39.6657C35.3588 41.1123 33.4335 42.2272 31.3451 42.9886V48.2602C31.3451 48.6699 31.0139 49 30.606 49Z" stroke="#BFBFBF" stroke-width="2" stroke-linecap="round"/>
<path d="M25.0001 33C20.0381 33 16 28.9621 16 24.0001C16 19.0381 20.0381 15 25.0001 15C29.9621 15 34.0002 19.0381 34.0002 24.0001C34.0002 28.9621 29.9621 33 25.0001 33Z" stroke="#BFBFBF" stroke-width="2" stroke-linecap="round"/>
</svg>
